<svg width="1283" height="496" viewBox="0 0 1283 496" fill="none" xmlns="http://www.w3.org/2000/svg">
<path d="M38.5003 23.0002L64.0792 44.161C87.4475 59.8073 133.866 92.2889 179.308 128.422C224.658 164.895 268.805 205.869 321.426 215.167C374.137 224.125 435.095 202.257 485.376 220.302C535.657 238.347 574.805 298.004 622.655 325.135C670.368 352.776 726.783 347.892 778.131 361.946C829.616 375.49 876.035 407.972 931.154 407.929C986.138 408.395 1049.82 376.336 1104.81 376.803C1159.93 376.759 1206.34 409.241 1229.71 424.887L1252.99 440.873L1243 325.274L1256.36 325.275C1230.65 318.375 1179.24 304.576 1127.82 290.777C1076.4 276.978 1024.99 263.179 973.57 249.38C922.153 235.582 870.737 221.783 819.32 207.984C767.903 194.185 716.487 180.386 665.07 166.587C613.654 152.788 562.237 138.989 510.821 125.19C459.404 111.391 407.988 97.5925 356.571 83.7935C305.155 69.9946 253.738 56.1957 202.321 42.3968C150.905 28.5979 99.4883 14.799 73.78 7.89953L48.0718 1.00007L38.5003 23.0002Z" fill="#0099FF"/>
<path d="M1269 456V1H19C118.591 162.771 767.795 38.8884 1269 456Z" fill="#0099FF"/>
</svg>
