<svg width="1440" height="600" viewBox="0 0 1440 600" fill="none" xmlns="http://www.w3.org/2000/svg">
<g id="Group 171">
<g id="Group">
<path id="Vector" d="M-9.12868 4.82858L20.4026 25.2234C50.0506 45.1829 108.938 86.6256 166.572 132.748C224.089 179.306 280.06 231.633 346.909 243.363C413.875 254.657 491.427 226.442 555.273 249.382C619.118 272.322 668.674 348.594 729.399 383.179C789.948 418.418 861.668 411.972 926.884 429.796C992.275 446.968 1051.16 488.411 1121.22 488.168C1191.1 488.578 1272.15 447.303 1342.04 447.713C1412.09 447.47 1470.98 488.913 1500.63 508.873L1530.16 529.267L1567.49 389.953L1534.84 381.204C1502.19 372.455 1436.88 354.957 1371.58 337.459C1306.28 319.961 1240.97 302.463 1175.67 284.965C1110.36 267.467 1045.06 249.969 979.757 232.471C914.454 214.973 849.15 197.475 783.847 179.977C718.543 162.478 653.239 144.98 587.936 127.482C522.632 109.984 457.329 92.4863 392.025 74.9883C326.722 57.4902 261.418 39.9922 196.114 22.4941C130.811 4.99609 65.5072 -12.502 32.8554 -21.251L0.203613 -30L-9.12868 4.82858Z" fill="#0099FF"/>
</g>
<path id="Polygon 1" d="M1457.1 388.5V0H55L1457.1 388.5Z" fill="#0099FF"/>
</g>
</svg>
