<svg width="1775" height="1239" viewBox="0 0 1775 1239" fill="none" xmlns="http://www.w3.org/2000/svg">
<path d="M3.43323e-05 -2.48199e-05L52.1771 6.58732C103.973 13.8346 208.899 26.0194 251.911 145.441C294.923 264.862 277.928 488.221 346.372 563.593C415.388 637.975 569.844 564.37 669.34 585.959C768.265 608.538 812.23 726.309 911.155 748.888C1010.65 770.476 1165.11 696.872 1259.55 727.204C1354 757.537 1386.54 895.106 1435.27 1004.63C1483.99 1114.15 1526.76 1159.77 1616.16 1198.84C1725.91 1233.13 1674.82 1216.5 1774.32 1238C910.147 1238 556 1238 3.82125e-06 1238C4.0447e-05 820.845 2.61596e-05 312.845 3.43323e-05 -2.48199e-05Z" fill="#0099FF"/>
</svg>
