<svg width="2795" height="2521" viewBox="0 0 2795 2521" fill="none" xmlns="http://www.w3.org/2000/svg">
<rect x="496.137" y="500.668" width="2321.59" height="992.274" transform="rotate(30 496.137 500.668)" fill="#0099FF"/>
<g clip-path="url(#clip0_0_1)">
<path d="M718.27 105.587L770.447 112.174C822.243 119.421 927.168 131.606 970.181 251.028C1013.19 370.449 996.197 593.808 1064.64 669.18C1133.66 743.562 1288.11 669.957 1387.61 691.546C1486.53 714.124 1530.5 831.896 1629.42 854.475C1728.92 876.063 1883.38 802.459 1977.82 832.791C2072.27 863.124 2104.81 1000.69 2153.53 1110.22C2202.26 1219.74 2265.28 1304.51 2354.68 1343.59C2443.7 1383.33 2558.15 1379.01 2615.37 1376.86L2672.6 1374.7L2489.71 1691.46L2447.73 1667.22C2405.74 1642.98 2321.77 1594.5 2237.8 1546.02C2153.83 1497.54 2069.86 1449.06 1985.89 1400.58C1901.92 1352.1 1817.95 1303.62 1733.98 1255.14C1650.01 1206.66 1566.04 1158.18 1482.07 1109.7C1398.1 1061.22 1314.13 1012.74 1230.16 964.257C1146.19 915.777 1062.22 867.296 978.249 818.816C894.279 770.336 810.308 721.856 726.338 673.375C642.368 624.895 558.397 576.415 516.412 552.175L474.427 527.934L718.27 105.587Z" fill="#0099FF"/>
</g>
<defs>
<clipPath id="clip0_0_1">
<rect width="2327.05" height="609.606" fill="white" transform="translate(779.23) rotate(30)"/>
</clipPath>
</defs>
</svg>
