<!-- Generator: Adobe Illustrator 24.3.0, SVG Export Plug-In  -->
<svg version="1.1" xmlns="http://www.w3.org/2000/svg" xmlns:xlink="http://www.w3.org/1999/xlink" x="0px" y="0px"
 width="100px"
	 height="165px" viewBox="0 0 312.5 514.9" style="overflow:visible;enable-background:new 0 0 312.5 514.9;"
	 xml:space="preserve">
<style type="text/css">
	.st0{fill:rgba(203, 214, 230, 0.5);}
	.st1{fill:#F16C4B;}
	.st2{fill:#18292F;}
	.st3{fill:#EA5A39;}
	.st4{fill:#E2472E;}
	.st5{fill:#CBD5E4;}
	.st6{fill:#EA603E;}
	.st7{fill:#AA2625;}
	.st8{fill:#D3CED8;}
	.st9{fill:#B14930;}
	.st10{fill:#B14A2F;}
	.st11{fill:#1D1E1F;}
	.st12{fill:#982A22;}
	.st13{fill:#972922;}
	.st14{fill:#A92524;}
	.st15{fill:#2E2C2E;}
	.st16{fill:#F69176;}
	.st17{fill:#312B2B;}
	.st18{fill:#F9F7F4;}
	.st19{fill:#DE603F;}
	.st20{fill:#E5674E;}
	.st21{fill:#2C3F46;}
	.st22{fill:#EA5D39;}
	.st23{fill:#504740;}
	.st24{fill:#422821;}
	.st25{fill:#F16B49;}
	.st26{fill:#345566;}
	.st27{fill:#355467;}
	.st28{fill:#FAF6F4;}
	.st29{fill:#1D0F0E;}
	.st30{fill:#E05F3D;}
	.st31{fill:#F16B4A;}
	.st32{fill:#273542;}
	.st33{fill:#F09074;}
	.st34{fill:#E3603F;}
	.st35{fill:#17292F;}
	.st36{fill:#110D0D;}
	.st37{fill:#482A23;}
	.st38{fill:#312E2E;}
	.st39{fill:#33434E;}
	.st40{fill:#33424C;}
	.st41{fill:#F26C4B;}
	.st42{fill:#38505B;}
	.st43{fill:#F28F76;}
	.st44{fill:#3A4045;}
	.st45{fill:#586265;}
	.st46{fill:#385662;}
	.st47{fill:#636F73;}
	.st48{fill:#436678;}
	.st49{fill:#30515E;}
	.st50{fill:#6F868E;}
	.st51{fill:#E25F3E;}
	.st52{fill:#345666;}
	.st53{fill:#6B828C;}
	.st54{fill:#283E46;}
	.st55{fill:#263D43;}
	.st56{fill:#F69074;}
	.st57{fill:#3E616F;}
	.st58{fill:#778D98;}
	.st59{fill:#416677;}
	.st60{fill:#3B5B6A;}
	.st61{fill:#EE603F;}
	.st62{fill:#D54F2F;}
</style>
<defs>
</defs>
<path class="st0" d="M91.7,493.6c-18.1-3.5-31-14.3-39.9-29.7c-11.5-20.1-15.5-42.7-18-65.3c-1.8-15.4-1.5-31-3.6-46.4
	c-1-7.5-4.9-14.6-8-21.7c-10.9-25.1-18.6-51.3-20.8-78.4C-0.5,229.2-0.6,206,2,182.9c1.2-10.8,0.8-21.7,1.6-32.6
	c2-25.8,4-51.7,11.7-76.4c6-19.4,15.2-37.5,31.1-51.2C60.1,11,77,6.5,94.2,3.7c17.4-2.8,35.1-4.6,52.8-3.2
	c23.2,1.8,46.5,3.2,69.3,8.4c4.3,1,9-0.7,12.9,2.1c-3.9,3.8-8.9,2.7-13.3,2.4c-24.4-1.9-48.7-1.4-73.1-0.2
	c-13,0.6-25.3,2.9-37.2,7.4c-7.8,3-14.9,7.4-18.6,15.6c-5.1,7.9-4.9,17.3-7.2,26c-9.1,11.5-10.3,25.3-10.9,39.1
	c-1,24.7,1.3,49.2,3.1,73.7c0,4.6,0.3,9.2-0.8,13.8c-4,10-3.6,20,0.3,30c1.5,23.6,0.4,47.1,0.6,70.7c0.1,7.5,0.7,15-0.7,22.5
	c-2.6,5.8-7.7,4.1-12.1,3.6c-5.6-0.7-5.7,1.8-3.8,5.8c1.6,3.4,4.2,5.9,7.2,8c2.1,1.5,4.5,2.6,5.4,5.3c1.9,8.3-1,16.5-0.9,24.8
	c0.3,21,1.9,42,3.1,62.9c1.6,14.6,2.2,29.4,6.6,43.6c0.5,9.1,4.7,16.2,11.6,22C90.1,489.3,92.2,490.8,91.7,493.6z"/>
<path class="st1" d="M298,404.6c-3.6,16.7-2.5,34-6.1,50.8c-0.8,4-1,8.2-3.1,11.9c-3.7-1.5-2.9,2.5-4.3,3.8
	c-1.8,1.7-2.8,4.7-5.9,1.9c-1.1-3.9,1.3-7,2.5-10.3c1.2-3.4,2.5-6.8,2.3-10.5c-0.1-3.2-0.5-6.5-4.3-7.3c-3.9-0.8-6.3,1.5-8,4.7
	c-2.3,4.5-2.3,9.5-2.4,14.4c-0.1,5.6-2,10.1-7.9,11.9c-4.7,0.7-6.3-1.3-5.2-5.8c0.9-3.8,2-7.5,3-11.3c6.4-22.2,10.2-44.9,10.7-68
	c0.1-3.1,0.3-6.3-1.8-9c-2.4-5.1,0.7-10.3-0.2-15.4c0-0.8,0.1-1.5,0.3-2.3c0.9-1.6,2.5-2.6,3.8-3.8c5.1-4.6,7.1-9.8,3.1-16.2
	c-5.2-19.7-12.1-38.8-17.5-58.4c-2.8-8.5-5.8-16.9-5-26c0-11.6-0.1-23.3,0.1-34.9c0.1-3.2-0.6-7,3.9-8.3c3.5,0.8,3.4,3.8,3.4,6.2
	c-0.6,29.2,7,56.8,16.7,83.9c2.1,5.9,3,12,4.8,18c1.9,6.2,4.8,9.5,11.7,7.6c1.9-0.5,4.1-0.7,6,0.7c1.8,2.9,1.8,5.8,0.3,8.8
	c-0.5,2.7-5.6-2.2-5.1,3.3c2,22.2,2.7,44.5,0.1,64.2c-0.5-3,1.3-8.3,1.2-13.8c0-1.7,0.3-4.6,3.6-2.7
	C298.6,396.7,299.8,400.7,298,404.6z"/>
<path class="st2" d="M297.5,333.1c-2.3,1.2-5.1,1.1-7.4,1.9c-6.9,2.5-8.8-1.8-10.4-6.8c-3.7-11.2-5.3-23.1-9.8-34.1
	c-10.2-24.6-12.4-50.6-12.8-76.8c-2.4-3.1-2.1-6.9-2.1-10.5c0-26.8-0.1-53.6,0.4-80.3c0.1-8.2,0.8-16.6,3.1-24.6
	c2.3-5.8,5.7-4.4,8.8-1.1c4.5,4.6,6.1,10.7,7.7,16.8c4.7,18.2,6.5,36.7,8.3,55.3c4,41.6,3.1,83.4,3.2,125.1c0,3.1,0,6.2,0.1,9.3
	c0.2,4,2.3,5.5,6.2,4.9c4.6-0.8,9,0.1,13.6,0.5c6.7-1.2,7.3,1.7,5.1,7c-1.6,3.8-4.6,6.6-7,9.9C302.8,332.2,301.1,334.4,297.5,333.1z
	"/>
<path class="st3" d="M279,473.1c4.9-0.4,4-5.8,6.8-8c0.7-0.6,1.4-2,2.1-1.3c0.7,0.7,0.7,2.3,0.9,3.5c-1,11.2-7.2,19-16.2,25.2
	c-19.4,13.4-41.7,18.8-64.5,21.1c-31.3,3.1-62.4,1.5-92.6-8.8c-8.4-2.9-16.1-7.1-23.9-11.1c-7.3-7.4-16.8-13.4-15.9-25.7
	c-0.3-1.5-1.3-3.1,0.5-4.2c1.6-1,2.9,0,4.1,1.2c1.9,2.1,2.3,5.3,5.2,6.6c5.6,4.6,9.1,11.2,15.3,15.3c5.9,3.9,11.7,7.7,19.1,7.8
	c15.9,7.2,33.2,8.1,50.1,10.7c22.4,3.4,43.7-2.8,65.2-7.5c2.8-0.6,5.5-1.6,8.3-2.2c11.9-2.3,21.3-8.6,29.2-17.6
	C274.4,475.9,275.6,473,279,473.1z"/>
<path class="st4" d="M85.3,35.7c5.8-13.8,18.4-18.4,31.2-21.2c28.7-6.4,57.9-4.5,87-4.2c8.6,0.1,17.1,0.5,25.7,0.7
	c13.4,2.6,27.2,3.8,38.7,12.5c5.3,4,10.2,7.7,12.1,14.3c-2,4.1-3.9,0.8-5.2-0.4C260.2,24.9,243,23,224.7,25.2
	c-13.7-0.3-27.2-2.8-40.9-2.4c-15.2,0.2-30.5-0.8-45.5,2.4c-17-2.2-33.2-0.2-47.4,10.4c-1.7,1.3-3.5,3.5-6.1,1.3
	c-0.1-0.1,0-0.4,0.1-0.6C85,36.1,85.2,35.9,85.3,35.7z"/>
<path class="st5" d="M306.3,312.7c-4.1,1.6-8.4,1.4-12.7,1.2c-2.5-2.4-2.5-5.6-2.5-8.7c0.1-10.9,0-21.7,1-32.5
	c1.3-13.9-1.7-27.8-0.8-41.8c0.3-4.4-0.2-8.8,1.6-13c4.3-9.5,4.6-19,0.2-28.5c-3.5-7.6,0.8-15.2-0.3-22.8c-0.5-10.1,2-20,1.6-30
	c-0.1-2.5-0.4-6,3.5-6.7c4,7.1,1.5,15.1,2.9,22.6c1.6,8.2,1.3,17,1.8,25.5c2.5,41.9,1.7,84,1.8,126
	C304.5,306.9,303.3,310.3,306.3,312.7z"/>
<path class="st6" d="M297.9,129.9c-2.2,12.3-1.9,24.9-3.2,37.3c-4.8-1-4.8-5-5-8.5c-1.5-24.3-2.9-48.6-4.8-72.8
	c-0.5-6.2-2-12.3-2-18.5c0.2-2.4,0.7-4.6,2.8-6.2c8.6,9.1,10.2,20.6,10.9,32.2C297.2,105.6,297.5,117.8,297.9,129.9z"/>
<path class="st7" d="M285.7,61.2c-0.4,1.5,0.6,3.6-1.6,4.5c-4.9-6.3-6-14.6-11.7-20.7c-6.7-7.2-14.1-12.7-23.8-15
	c-6.3-2.5-13.2-2.1-19.6-4.1c-1.2-0.5-2.2-1.1-2.8-2.3c18.8-2.6,36.5-0.9,50.6,13.7c1,1.1,1.9,1.8,3.2,0.5
	C284.5,45,285,53.1,285.7,61.2z"/>
<path class="st8" d="M297.5,333.1c2.3-1.1,4.5-2.3,6.8-3.4c-1,24.2-2.1,48.3-4.8,72.4c-0.1,0.9-1,1.7-1.5,2.6
	c-0.1-4.1-0.1-8.3-0.2-12.4c-3.2-16.7-3.6-33.3,0-50C297.8,339.1,297.7,336.1,297.5,333.1z"/>
<path class="st9" d="M85.3,473.3c-4.2,0-4.3-3.6-5.7-6.2c-0.6-1.1-1-3.3-3.1-2c-0.6,0.4-0.6,1.8-0.8,2.8c-3.8-7.2-4.2-15.4-5.6-23.2
	c-1.2-6.8-1.1-13.9-1.6-20.9c1.7-5.3,0.3-10.7,0.3-16c0-21.2-0.1-42.4,0-63.7c0-2.8,0-5.7,1.6-8.3c6.9-2,11.7-6.1,13.1-13.6
	c3.3-17.1,10-33.2,15.3-49.7c2-6.3,2.3-12.6,3.1-19c3.7-28.9,2.7-58,2.9-87c0-6-0.1-11.9,0.1-17.9c0.2-2.9-0.2-5.9,2-8.2
	c1.5-0.6,2.9-0.6,4,0.8c1.8,2.8,1.5,6,1.6,9.1c0.3,17.4-0.4,34.8,1.4,52.2c1.8,16.9-2,33.7-1.5,50.6c1.2,17.8-6.4,33.8-11.1,50.2
	c-3.6,12.7-7.9,25.1-11.4,37.8c-4.4,7.9-3.5,14.7,3.7,20.6c1.8,1.5,3.3,3.3,3.4,5.8c0.7,40.7,7.8,79.8,27.9,115.8
	c1.7,3.1,4.5,5.9,3,10c-3.2,2.9-6.4,0.7-9.5,0c-7.6-5.6-13.7-12.6-19.8-19.7c-2.5-2.9-2.6-6.7-3-10.3c-0.5-5.2-0.9-10.4-3.8-15
	c-1.8-2.8-4.4-4.7-7.9-3.7c-3.7,1.1-4.2,4.4-3.9,7.6c0.4,4.4,1.9,8.6,3.4,12.8C84.5,467.8,86.6,470.2,85.3,473.3z"/>
<path class="st10" d="M69.9,314c-0.1-32.1-0.1-64.2-0.2-96.3c-1.9-9.7-2.4-19.5-0.1-29.2c0.1-4.5,0.2-9,0.3-13.4
	c1.8-8.2-0.3-16.4,0.3-24.7c1.6-24.7,3.4-49.5,5.2-74.2c0.3-4.6,0.8-9.3,3.5-13.4c1.8-8.4,5.5-15.9,11.3-22.3
	c3-3.2,5.8-6.6,10.8-6.6c2.7,0.8,4.4,2.3,4.2,5.3c-0.6,3.5-4.2,4.4-5.9,6.9c-4.4,6.1-7,12.6-4.2,20.3c2.6,7.2,5.6,14,10.5,19.8
	c2.9,3.5,4.3,7,2.8,11.4c-0.4,0.8-0.9,1.4-1.6,1.9c-1.1,0.7-2.4,1-3.7,1.4c-9.2,6.4-9.9,16.9-11.6,26.2c-3.9,21.1-5.5,42.6-7.3,64
	c-3.4,39.1-2.5,78.2-2.7,117.4c0,3.1,0.2,6.5-3.4,8C74.8,317.8,71.9,317.1,69.9,314z"/>
<path class="st11" d="M69.9,314c9.6,2.4,9.6,2.4,9.4-7.8c-1.1-43.8-0.4-87.7,3.4-131.4c2-22.7,3.2-45.9,12.2-67.5
	c1.6-4,2.8-9.4,9.2-8.7c2.8,3,2.1,6.7,2.2,10.2c0.1,4.9,0.2,9.7,1.4,14.5c1.7,8.4-2.3,16.7-0.7,25.2c0.7,38.2,1.7,76.5-3.5,114.4
	c-1.9,14.4-8.2,28.2-13.2,42.1c-2.3,6.4-2.8,13-4.7,19.5c-2.3,7.8-5.3,13.1-14.5,11.5c-2.6,0.9-3.2-1.4-4.3-2.7
	c-6.7-2.6-12.1-6.3-14.7-13.6c-2-5.8-1.1-8.4,5.5-6.7C61.7,314.1,65.7,314.3,69.9,314z"/>
<path class="st12" d="M80.5,61.2c-3.5,10.4-3.3,21.4-4.4,32.1c-1.9,18.5-1.7,37.2-3.7,55.7c-0.9,8.7,0.1,17.5-2.5,26
	c-2.5-29.7-5.4-59.3-2-89.1c1.1-9.3,3.4-18.3,10.6-25.1C79.4,60.2,80,60.3,80.5,61.2z"/>
<path class="st13" d="M66.8,333.3c1.4,0.9,2.9,1.8,4.3,2.7c-0.3,26.8,1.2,53.6-0.8,80.4c-0.2,2.5,1.2,5.2,0.7,7.6
	c-0.5,2.9-1.5-0.6-2.4-0.2C65.5,393.7,63.1,363.5,66.8,333.3z"/>
<path class="st14" d="M80.5,61.2c-0.7-0.1-1.3-0.2-2-0.3c0.5-8.8,0.9-17.7,6.7-25.2c3.1-0.6,2.9-0.8,4.9-2.2
	c14-10.2,29.7-13,46.5-9.9c-1.8,2.2-4.6,2.3-7,2.7c-9.9,1.7-19.2,5.3-28.7,8.4C89.7,40.1,84.8,50.4,80.5,61.2z"/>
<path class="st15" d="M69.6,188.5c0.8,9.7,1.2,19.5,0.1,29.2C64.5,210.2,64.5,196.1,69.6,188.5z"/>
<path class="st16" d="M268.2,365.5c4.8,5.1-1.7,10.6,0.4,15.8c2.9,6.6,1.3,13.3,0.5,19.9c-3.3,26.7-10,52.5-21.7,76.9
	c-2.7,5.6-6.3,10.7-9.6,16c-6.5,3.9-13.2,7.2-21.2,4.6c-0.8-1.2-0.9-2.5-0.4-3.9c5.8-20.8,10.8-41.7,10.8-63.4
	c0-11.7,2.5-23.2,1.7-35c-0.3-4.2-0.3-8.3-1.4-12.3c-0.2-1.4,0.1-2.5,1.1-3.5C242.1,376.8,254.3,368.9,268.2,365.5z"/>
<path class="st17" d="M254.2,261.2c-1.3,8.8,3.7,16.3,4.9,24.6c0.8,5.6,2.2,11.4-5.7,13.1c-2.9-1.3-3.8-4.1-4.4-6.8
	c-1-4.5-2.8-7.9-8.1-8c-2.4-3.2-2.9-6.6-0.9-10.1c7.1-5.1,8-11.9,6.5-20c-1.7-9.5-0.5-19.2-0.8-28.8c-1.4-42.9,2-85.7,3.7-128.5
	c0.1-3.6-0.3-6.7-3-9.2c-2.2-2.3-6-3.3-6.5-7.1c3.5-3.6,8.4-3.6,11-0.7c4.3,4.8,6.8,1.9,10-0.6c1.2-0.3,2.3-0.1,3.3,0.7
	c1.4,6.2-4.9,9.5-5.5,14.9c-2.6,18.5-3.1,37.1-3.4,55.7c-0.3,23.5-2.3,47-2.2,70.6C253,234.4,252.7,247.9,254.2,261.2z"/>
<path class="st18" d="M279,473.1c-8.9,11.3-18.7,21.3-33.7,24.1c-2.2-1.6-1.2-3.4-0.4-5.2c4.6-6.3,8.7-13.1,16-16.8
	c4.8-2.9,6.2-7.4,5.9-12.6c-0.3-5.5,0.8-10.8,3.2-15.7c2.2-4.4,5.9-5.6,10.4-4.6c4.4,0.9,5,4.3,5.4,8.2
	C286.5,458.9,281.6,465.6,279,473.1z"/>
<path class="st19" d="M260.9,475.2c-4.8,5.6-9.7,11.2-14.5,16.9c-2.9,1.5-5.6,4.1-9,1.1c2-8.9,8.2-15.8,11.6-24
	c11.8-28.2,18.1-57.4,19.5-87.8c2.8,0.3,2.9,2.4,3,4.5c0.1,14.9-2.1,29.4-4.3,44.1c-2.1,14.1-6.3,27.4-9.9,40.9
	C256,475.5,260.2,473.4,260.9,475.2z"/>
<path class="st20" d="M254.2,261.2c-2.6-12.8-2-25.8-2.3-38.7c-0.9-42.6,1.8-85.1,4.3-127.6c0.1-1,0.7-1.9,1-2.9
	c3.5,2.5,1,6.6,2.6,9.6c-3.7,34.6-2.5,69.3-2.6,103.9c0,3.9-0.1,7.8-0.1,11.6c-4.1,1.1-2.7,4.5-2.7,7
	C254.2,236.6,254.2,248.9,254.2,261.2z"/>
<path class="st21" d="M252.9,298.3c5.9-2.3,6-7.4,6.1-12.4c5.9,19.6,13.1,38.8,17.3,58.9c1.6,8.6-1,12.5-9.5,14.9
	c-3.4-3-3.9-6.4-1.8-10.3c3.4-3.3,2.2-7.1,0.9-10.8c-3.8-11-8.5-21.6-11.9-32.7C253.5,303.4,251.3,301.1,252.9,298.3z"/>
<path class="st22" d="M297.9,342.2c0.9,16.7,0.5,33.3,0,50c-2.2,7.6-2.3,15.6-3.9,23.4c-0.5-26.2-0.3-52.3-2.3-78.4
	C297.1,337,294.2,342.3,297.9,342.2z"/>
<path class="st23" d="M268.2,365.5c-12.1,7.2-24.9,12.7-38.7,15.7c-1.4-2.6-1.3-5,0.7-7.2c10.6-4.9,22.4-7.1,32.2-13.8
	c1.3-0.9,3-0.7,4.5,0.2c1.5,0.9,2.6,2,1.7,3.9C268.3,364.7,268.3,365.1,268.2,365.5z"/>
<path class="st24" d="M268.4,364.3c-0.6-1.2-1.2-2.4-1.9-3.6l-0.3-0.7l0.6-0.5c5.4-3.4,9.6-7.6,9.4-14.6
	C280.7,353.2,278.6,358.5,268.4,364.3z"/>
<path class="st25" d="M259.8,101.7c-4.5-2.2-1.3-6.5-2.6-9.6c0.9-4.9,6-7.3,6.9-12.2c-0.1-4.3,2.5-7.8,3.6-11.7
	c4-13.6,0.3-21.8-12.7-27.3c-2.8-1.2-6-1.8-7.7-4.8c-1.1-3-1.2-5.8,2.2-7.5c19.6,5,30.4,18,34.6,37.1c3.8,10.3,3.3,21.4,4.3,32
	c2,20,2.4,40.1,3.4,60.2c0.2,3.4,0.2,6.7,2.9,9.3c1.5,7.1-2.8,14.2,0,21.3c0.4,9.7,1.7,19.5,0,29.2c-2,10.8-1,21.7-0.7,32.5
	c0.5,21.3-0.6,42.5-0.5,63.7c-9.7,2.5-9.8,2.5-9.5-7.1c1.3-40.6,0.7-81.1-2.1-121.6c-1.8-25.5-3.5-51.2-11.9-75.9
	c-1.1-3.3-2.8-6.1-4.9-8.7C263,97.9,261,97.9,259.8,101.7z"/>
<path class="st26" d="M278.5,303.1c-6.6-18.1-15.5-35.6-14.7-55.5c0.7-17.9-1.8-35.7-1.5-53.5c0-3-2.1-8.4,2-8.5
	c4.8-0.2,10.3,1.8,12.8,7.2c0.5,1.1,0.5,2.5,0.6,3.8C279.9,232,279.3,267.5,278.5,303.1z"/>
<path class="st27" d="M264.3,106.5c4.9,13,6.7,26.7,8.9,40.3c1,6.4,1.4,12.8,1.7,19.2c0.1,3.1,1.7,6.6-3.6,5.8
	c-3.6-0.5-9.2,2.4-9.1-4.8C262.5,147,260.9,126.8,264.3,106.5z"/>
<path class="st28" d="M85.3,473.3c-3-6.3-6.5-12.4-7.1-19.5c-0.4-4.6-0.9-9.9,5-11.5c6-1.7,10,1.2,11.7,7.1c0.9,3.2,2.5,6.6,2.2,9.7
	c-1,10.4,5.1,16.8,11.8,23.1c3.2,3,5.8,6.5,8.7,9.8c1.6,1,1.6,2.4,0.9,3.9c-9.9,0.9-16.5-5.4-23.2-11.1
	C91.5,481.6,88.6,477.2,85.3,473.3z"/>
<path class="st29" d="M118.5,495.9c-0.3-1.3-0.6-2.6-0.9-3.9c3.2,0.6,6.4,1.2,9.6,1.8c8.2-1.9,15.7,2.2,23.6,3.1
	c9.5,1.1,18.9,0.6,28.3,0.6c12.4,0,24.9,0.4,37.4,0.5c7.4,0.4,14-2.6,20.8-5c3-0.4,6-0.7,9.1-1.1c-0.4,1.7-1.8,3.2-1.1,5.2
	c-19.7,7.2-40.5,9.9-61.1,11.4c-15.1,1.1-30.5-2.6-45.5-6C131.9,501.1,124.4,500.8,118.5,495.9z"/>
<path class="st30" d="M101.1,34.7c10.5-8.3,23.2-9.3,35.7-11.1c15.5-4.3,31.3-3,47.1-3c1.3,4.9,0.8,9.2-3.9,12.2
	c-10.3,1-20.6,2.6-31,2.3c-12.4-0.4-24.3,1.8-36.1,4.8c-3,0.8-6,2-8.9-0.4C104.4,37.1,102.2,36.3,101.1,34.7z"/>
<path class="st31" d="M180.7,31.1c2.6-3,0.7-7.4,3.2-10.4c14.2-0.4,28.3,1.4,42.4,2.9c1.1,0.1,2.1,0.3,3.2,0.4
	c2,3.6,2.6,7.2,0.3,10.9c-6.8,3.2-13.7-1-20.5,0.4c-2.3,0-4.7-0.1-7-0.6c-4.3-1.4-8.7-0.7-13.1-0.9
	C186.2,33.4,182.8,34.2,180.7,31.1z"/>
<path class="st32" d="M294.7,217.7c-3.7-8.1,0.5-16.8-2.1-25c-0.6-1.8-0.3-3.7,2.2-4.2C299.8,198.2,299.9,208,294.7,217.7z"/>
<path class="st33" d="M229,34.4c0.1-3.5,0.3-7,0.4-10.4c6.5,2.3,13.8,1,20,4.6c-1.5,2.5-1.6,5.1-1.1,7.8c-0.3,0.3-0.7,0.5-1,0.8
	c-5.6,2.1-11,0.2-16.4-1.2C230.1,35.7,229.5,35.1,229,34.4z"/>
<path class="st34" d="M216.6,498c-10.3,2.4-20.6,5.3-31.1,1c-1.6-0.6-3.7-0.7-5.3-0.2c-18.3,5.4-35.5-0.7-52.9-5
	c-2-9-8.3-15.9-11.9-24.2c-9-21.1-14.7-43-17.6-65.7c-1.3-10-3.2-19.9-3.1-30c0-2.5-0.8-5.3,1.7-7.2c3.4-1.4,6,0.8,8.7,2.2
	c16.5,8.3,34.1,12.5,52.2,14.9c3.9,0.5,7.9,0.5,10.4,4.3c1.5,3.5,1.3,7.1,1.2,10.7c-0.7,18.9,0.7,37.8,1.8,56.7
	c0.6,9.3,2.9,18.4,4.7,27.5c1.1,5.8,4.7,8.2,10.5,8.3c8.8,0.1,17.6-1.3,26.5-1c2.3,0.1,8.3-1.6,4.5,4.9
	C216.7,496.1,216.7,497.1,216.6,498z"/>
<path class="st35" d="M88.4,342c1.8-13.6,7.5-26.1,10.9-39.2c4.2-16,11.6-31.2,11.3-48.2c1.3-1.9-0.6-4.7,2.2-6.4
	c4.6,4.4,2,10.1,2.9,15.1c0,4.3,2.7,6.3,6.2,8.1c18.3,9.2,37.7,12.7,58.1,12.3c10.3,0,20.7,0.5,30.9-2.1c2.3-0.6,4.6-0.7,6.8,0.4
	c3.2,2.5,4,5.9,3.7,9.8c-0.2,0.9-0.5,1.6-1.1,2.3c-2.6,2-5.7,2.3-8.8,3c-2.3,0.5-4.9,0.8-6,3.2c-3,6.5-8.6,6.7-14.6,6.5
	c-6.3-0.1-12.5-0.1-18.8,0c-5.5,0.1-10.4-0.9-13.4-6.2c-1.6-2.8-4.6-3.1-7.4-3.6c-9.7-1.9-19.6-3.4-28.5-7.9c-3.4-1.7-6-1.1-7.5,2.7
	c-6.2,16.3-11.8,32.8-18.1,49c-1.4,3.6,0.3,6,3,8c6.1,4.5,12.9,7.7,20.1,10.3c6,2.1,12.7,3.1,16.9,8.7c-4.7,5.7-11.5,1.6-17,3.6
	c-11.9-2.6-21.9-8.9-31-16.5C85.1,351.4,86.9,346.5,88.4,342z"/>
<path class="st36" d="M88.4,342c-2.7,9.8,4.1,13.9,10.9,17.8c6.7,3.7,13.7,6.9,20.5,10.4c3.9-1.1,7.8,0.1,11.4,1.2
	c30.6,8.9,61.4,9,92.4,2.8c1.5-0.3,3.1-0.5,4.6,0c0.4,0.2,0.8,0.5,1.1,0.8c1.2,2.1,1.3,4.2,0.1,6.3c-0.6,0.5-1.3,1-1.9,1.5
	c-11.9,6.5-25.1,6.2-37.9,6.9c-7.6,0.4-15.6,2.1-23-2c-16.3-2.8-32.8-4.9-48.4-10.8c-7.5-2.8-14.6-6.5-21.8-10.1
	c-2.9-2.9-6.2-5.4-8.6-8.6C83.7,352.8,84,347.2,88.4,342z"/>
<path class="st37" d="M113.6,264.3c0-4.7,0-9.4,0-15.8c-1.5,3.2-2.3,4.6-3,6.1c-0.6-10.1,0.8-20.1,0.8-30.1
	c0.1-27.9-1-55.8-1.6-83.7c-3.3-5.5-0.6-11.8-2.5-17.5c-0.3-8.2-3.4-16.4-0.4-24.7l0.6,0.2c2.7-3.8,0.5-8,0.8-12.1
	c0.7-1.2,1.8-1.6,3.2-1.6c1.5,0.2,2.6,0.9,2.8,2.6c1.4,43.6,4.8,87.2,4.7,130.8c0,13-2.2,25.9-1.8,38.9
	C117.3,260.1,117.3,263.4,113.6,264.3z"/>
<path class="st10" d="M108.8,123.6c2.5,5.6,1,11.4,1.1,17.2c-0.8,0-1.6,0-2.4,0c-2.1-3.2-0.6-6.7-1-10
	C107.4,128.5,106.6,125.6,108.8,123.6z"/>
<path class="st37" d="M107.4,129.8c0,3.7,0.1,7.3,0.1,11c-0.2,2.6-0.3,5.2-0.5,7.8c-2.7-8.3-1-16.7-1.2-25.1
	C109.6,124.7,107.7,127.5,107.4,129.8z"/>
<path class="st38" d="M108.7,87.7c1.3,3.9,4.3,8-1.2,11.1c0.1-5.1-2.2-8.8-4.9-13.1C95.7,75,87.7,64.1,94.3,49.9
	c2.2-4.8,6.3-7.1,9.7-10.4c25.1-7.2,51-6.8,76.7-8.5c7.5,2,15.3-0.5,22.8,1.9c-7.6,4.5-16.2,1.7-24.3,3.6
	c-15.5,3.8-31.7,0.5-47.4,3.4c-7.4,1.4-15,1.8-21.8,5.6c-7.7,4.4-10.7,10.1-8.9,18.7c1,4.8,2.2,9.7,5,13.9
	C108,81,108.7,84.2,108.7,87.7z"/>
<path class="st9" d="M107.4,129.8c-0.7-2.1,0.3-4.5-1.6-6.3c-2.8-8.1-0.9-16.6-1.8-24.8c1,0,2-0.1,2.9-0.1c0.6,8.3,1.2,16.7,1.8,25
	C108.5,125.7,109.5,128.1,107.4,129.8z"/>
<path class="st39" d="M85.4,302.9c0-32.4-0.1-64.8,0.1-97.2c0-4.4,0.5-8.8,1.5-13c1.4-5.5,6.9-6,11.1-6.3c4.3-0.4,2.8,4.1,2.9,6.6
	c0.7,22.3,0.2,44.6-1.9,66.7C97.6,274.8,91.3,288.9,85.4,302.9z"/>
<path class="st40" d="M102.5,106.6c0,18.8,0,37.6,0,56.4c0,5.7-1.2,9.4-8.3,9.2c-5.2-0.2-6.3-2.5-5.7-6.8
	c2.7-19.2,4.9-38.4,10.1-57.1c0.2-0.7,0.8-1.2,1.3-1.8C100.7,106.5,101.6,106.5,102.5,106.6z"/>
<path class="st41" d="M166.6,387.6c20.5,0.7,40.8-1.3,60.9-4.9c2.7,1,3.2,3.2,3.2,5.6c-0.1,22.5-0.9,44.9-3.9,67.4
	c-1.7,12.3-5.5,24.1-7,36.4c-0.2,1.9-1.2,2.8-3,3c1.3-5.5-3.1-3-4.8-2.9c-7.1,0.2-14.2,1.2-21.3,1.3c-18.9,0.3-15.9-1.1-19.1-17.1
	C165.8,447.1,166.5,417.3,166.6,387.6z"/>
<path class="st41" d="M246.5,84.9c5.1,2.1,6,5.8,5.7,11.2c-3.3,53.6-6.4,107.3-2.7,161c0.6,8.7-0.9,15.1-9.5,18.5
	c-0.4-0.3-0.8-0.5-1.2-0.8c-3.5-4.2-2.4-9.4-2.9-14.2c-4.1-41.1-4-82.2-0.4-123.5c1.1-12.3,3.7-24.6,1.7-37
	c-0.4-0.8-0.5-1.6-0.6-2.4c1.4-2.6,3.3-4.9,4.1-7.9C241.4,86.9,243.3,85,246.5,84.9z"/>
<path class="st42" d="M260.6,79.9c-2.9,3.2-4.3,12.3-10.1,1.8c-2.2-4-7.1-1.3-10.8-1.7c-3.6,2.8-6.9,0.6-10.4-0.3
	c-1.5-0.6-2.8-1.4-3.9-2.7c-0.6-3.6-4.3-6.1-3.9-10.1c1.8-1.3,3.7-1.2,5.7-0.7c5,2.7,10.6,4.1,14.9,7.3c-0.7-2.5-0.8-5.4,1.9-7.7
	c3.5-1.5,5,1.3,7.1,3.1c3.4,2.8,5.8,6.7,9.5,9.1C261.2,78.6,261.1,79.3,260.6,79.9z"/>
<path class="st43" d="M229.3,78.1c3.5,0.6,7,1.3,10.5,1.9c2.2,1.6,4.5,3.3,6.7,4.9c-2.7,2.1-4.8,4.5-4.6,8.1
	c0.2,3.5-1.8,4.3-4.8,4.1c-11,0.8-16-5.4-12.7-15.6C225.1,79,226.1,77,229.3,78.1z"/>
<path class="st44" d="M260.6,79.9c-0.1-0.6-0.2-1.1-0.3-1.7c-1.1-1.4-0.6-2.9-0.2-4.4c5.8-20.5,5.4-21.5-12.4-32
	c-1.2-1.6-3.2-3.2-0.1-4.9c0.2-0.2,0.4-0.4,0.5-0.6c2.4,0.9,4.8,1.8,7.2,2.6c12.6,4.2,17.6,12.8,15,25.7c-1.1,5.6-2.5,10.9-6.5,15.2
	C262.9,79.9,261.8,79.9,260.6,79.9z"/>
<path class="st45" d="M220.1,292.4c-0.6-3.1-1.2-6.2-1.8-9.3c0.2-0.3,0.4-0.7,0.5-1c6.3-4.8,14.1-5.1,21.2-7.7
	c0.1,0.4,0.1,0.8-0.1,1.2c0.6,2.9,1.2,5.8,1.8,8.8c0.6,0.7,0.6,1.5,0.2,2.4C235.5,291.5,228.9,296.3,220.1,292.4z"/>
<path class="st46" d="M241.8,286.1c0-0.6,0-1.2,0.1-1.7c4.5-0.7,7.6,0.1,8.3,5.5c0.4,2.9,1.8,5.7,2.8,8.6c0.9,2.2,1.9,4.3,2.8,6.5
	c-1.8,1.6-1.4,5.6-5.2,5.2C244.9,303,243.1,294.6,241.8,286.1z"/>
<path class="st47" d="M266.9,359.4c-0.1,0.4-0.2,0.8-0.3,1.2c-10.4,5.1-20.6,10.5-31.9,13.2c-1.7,0.4-3.5,0.7-5.3,1.1
	c0,0-0.1,0-0.1,0c-2.1-2.1-2.2-5-2.7-7.7c-0.1-1.2,0.1-2.3,0.8-3.3c10.4-0.4,19.4-5,28.6-9.2c3.3-1.5,5.2-4.1,7.4-6.6
	c1.6-0.4,3.2-0.9,3.3,1.7C263.3,353,267,356.2,266.9,359.4z"/>
<path class="st48" d="M266.7,349.8c-1-0.5-1.9-0.9-2.9-1.4c-2.5-1.3-3.6-3.7-4.3-6.2c-2.6-10-7.1-19.4-9.6-29.4
	c0-1.3,0.3-2.5,1.2-3.4c2.1-0.9,1.2-5,4.6-4.6c4.4,12.2,8.7,24.4,13.1,36.5C270.1,344.7,271.1,347.9,266.7,349.8z"/>
<path class="st49" d="M227.1,67.4c-1.9,0-3.8,0-5.7,0c-2.8,2.6-6.3,2.4-9.6,1.9c-25-3.3-50-1.4-74.7,2.1c-6,0.9-13.9,3.8-19.3,9.1
	c-2.2,2.2-4.7,4.1-7.5,5.6c-0.5,0.5-1.1,1-1.6,1.5c-2.7-6.5-7-12.2-8.9-19.4c-5.4-20.1,5-25.1,19.3-28.5c13.3-3.1,27.1-4.1,40.9-3.7
	c14.5,0.4,28.8-4,43.4-3.2c1.7,0.1,3.4,0.1,5.1,0.2c1.2,0.8,1.2,1.9,0.8,3.1c-3.6,3.1-7.9,1.9-12,1.9c-3.3,0-5.5,0.1-2.6,3.9
	c0.7,0.9-2.6,2-0.4,1.7c11.2-1.6,19.3,5.9,29,8.8c1.7,0.5,3.5,0.9,5,2.1C231.1,59.1,230.9,63.4,227.1,67.4z"/>
<path class="st38" d="M209.1,36c-0.2-1-0.4-1.9-0.5-2.9c6.9-1.3,13.6,1.3,20.5,1.3c0.6,0.3,1.2,0.5,1.7,0.8c0.1,2.1-1,3.2-2.9,3.7
	C221.6,37.8,214.9,40.1,209.1,36z"/>
<path class="st50" d="M229,37.5c0.6-0.8,1.2-1.6,1.7-2.3c5.8-0.7,11.3,1.4,17,1.9c-1.3,1.4-0.3,2.6,0.3,3.9c1.9,8.7,0.8,17-3,25
	c-1,2.7-2.3,7.9-2.9,7.8c-5.4-0.9-10.8-2.4-15-6.3c0.5-4.1,1.9-8.3,0.5-12.5C226.4,49,226.2,43.1,229,37.5z"/>
<path class="st51" d="M113.6,264.3c3.1-13.5,2.2-27.3,2.5-41c1-42.8-2-85.6-4.1-128.3c-0.2-3.1-0.7-6.2,1.9-8.7c0.9-1,2.1-1,3.3-0.7
	c4.8,1.7,10,2.6,12.3,8c5.9,1.8,11.6-0.6,17.4-1c8.2-0.6,16.3-2.4,24.5-2.4c3.1,0,6.3-0.3,8.6,2.5c2.7,7.1,1.8,14.4,1.1,21.5
	c-0.8,7.8-1.2,15.5-1.1,23.3c0.2,26.2-2.6,52.3-1.6,78.5c0.7,20.4,1.6,40.8,1.6,61.3c0,2.8,0.5,5.7-0.9,8.4
	c-21.1,0.5-41.2-3.5-60-13.3C115.8,270.7,112.9,268.8,113.6,264.3z"/>
<path class="st41" d="M179.1,285.8c-1.2-2.1-1.5-4.3-1.5-6.7c0-32.2-2.8-64.5-1.3-96.7c0.9-20.2,0.5-40.4,1.7-60.5
	c0.6-9.8,0.9-19.6,1.3-29.4c7.5-2,14.9-0.3,20.4-0.8c-5.3-0.9-12.8,0.5-20.2-0.4c-3.7-6.9-1.2-12.8,2.9-18.5
	c14.9-2.5,29.6-3.2,43.7,3.6c1.1,0.5,2.2,1,3.2,1.6c-6.1,3.4-2.9,9.1-2.8,13.6c0.1,3.5,4.2,3.6,7.3,3.9c1.1,0.1,2.2,1,3.3,1.5
	c0,0,0,0.1,0,0.1c-1.3,1.5-3.1,1.9-4.9,2c-4,0.3-4.9,2.9-5.2,6.4c-1.8,15.7-2.1,31.6-2.9,47.4c-2.2,39.9-3.5,79.8-3.4,119.8
	c0,3.4-0.2,6.8-2.1,9.7c0,0-0.1,0.7-0.1,0.7C205.3,284.3,192.4,287.4,179.1,285.8z"/>
<path class="st52" d="M136.8,367.2c-13.7-5.3-28.2-8.7-40-18.3c-2.7-2.2-3.6-3.7-2.4-7c6.6-17.4,13.1-34.8,19.3-52.3
	c1.7-4.8,3.7-6.1,8.4-3.4c10.1,5.9,21.5,7.2,32.8,9c2.2,0.4,4.9-0.4,5.4,3c0.9,5.7,4.9,6.6,9.8,6.5c7-0.2,14.1-0.1,21.1,0
	c5.6,0.1,10,0.2,13-6.7c2.3-5.3,10.2-3,15.4-4.5c4.5,5.4,3.7,12.1,4.4,18.3c1.1,9.6,3.4,19.2,2,29c-1.3,3.6-4.1,5.9-7.3,7.7
	c-16.8,9.5-34.4,16.8-53.8,19.2c-3.8,0.5-7.7,1.2-11.1,3.3C147.7,371.9,142,370.5,136.8,367.2z"/>
<path class="st53" d="M224.7,342.1c-0.4-16.3-3.3-32.4-5-48.5c0.1-0.4,0.3-0.8,0.4-1.2c8,0.7,14.7-3.4,21.6-6.3
	c4.8,7.1,5.2,16,9.3,23.4c0,1.1,0,2.1-0.1,3.2c-5.8,11.8-14.3,21.4-24.3,29.9C226,342.7,225.3,342.6,224.7,342.1z"/>
<path class="st54" d="M136.8,367.2c6.1-0.7,11.4,3.1,17.4,3c4.1-2.4,8.5-1.6,12.8-1.2c17.1,1.5,34.1,0,51-2.3
	c3.3-0.4,6.6-1.9,9.7,0.4c2.5,2.2,1.2,5.2,1.5,7.8c-37,9.3-73.5,7.6-109.5-4.7C125,366.3,131.7,371.1,136.8,367.2z"/>
<path class="st55" d="M226,76.5c-14.5-2-29.1-4.1-43.8-2.8c-1.2,1-2.6,1.9-4.2,1.8c-21.2-0.6-41.5,3.9-61.5,10.5
	c-0.9,0.1-1.7,0.2-2.6,0.3c-1.2-0.1-2.4-0.1-3.6-0.2c4.7-6.7,9.5-13.1,19-12.6c1.6,0.1,1.6-0.3,2-3.2c0-0.4-0.2-0.8-0.4-1.2
	c0.8,0,1.6,0,2.3-0.1c20.9-1.9,41.9-3.4,63-3.3c8.5,0,16.7,2.9,25.2,1.7C225.7,69.1,226.8,72.3,226,76.5z"/>
<path class="st56" d="M218.5,282.4c0.3-22.5-1.4-44.9,1.1-67.4c0.6-5.7,0.3-11.4,0.3-17.1c-0.2-32.7,3.5-65.1,4.7-97.7
	c0.1-3.6,1.2-4.5,4.8-3.4c2.4,0.7,5.2,0.3,7.8,0.4c4,1.9,4.5,4.3,3.8,9c-2.1,12.9-2.5,26.1-3.8,39.2c-2.9,29.2-1.7,58.5-1.2,87.7
	c0.2,13.7,1.2,27.7,4.2,41.3C233.8,279.4,225.9,280.2,218.5,282.4z"/>
<path class="st57" d="M245,65.9c1-8.3,2-16.7,3-25c22.5,4.6,19.8,20.7,12.3,37.4c-6.4,0.3-7.6-6.2-11.4-9.3
	C247.7,68,246.4,66.9,245,65.9z"/>
<path class="st58" d="M226.1,342.2c8.3-9.9,16.6-19.7,25-29.6c5.5,11.5,8.5,23.9,12.7,35.8c-0.2,2.1,0,4.4-2.2,5.5
	c-9.3,4.6-18.4,9.5-28.7,11.6c-1.9,0.4-3.5-0.6-5.1-1.5C224.2,357,222.1,349.8,226.1,342.2z"/>
<path class="st59" d="M226.1,342.2c-0.8,7.4,2,14.4,1.7,21.8c0,1,0,2.1,0,3.1c-24.3,5.3-48.9,5.8-73.6,3.1c2.3-5.2,7.5-3.8,11.3-4.4
	c21.6-3.3,41.3-11.2,59.2-23.7C225.1,342.1,225.6,342.2,226.1,342.2z"/>
<path class="st60" d="M229,37.5c-0.1,5.8,1.4,11.8-1.3,17.4c-4-0.1-17-5.9-21.6-8.6c-2.2-1.3-5.5-0.7-8.3-0.8c-3.7-0.1-7.5,0-12.6,0
	c2.8-4.1,5.8-2.4,8.2-3.6c-1.6-1.7-5.8-1.1-5-4.2c0.8-3,3.9-1.4,6-1.5c4.9-0.3,9.8-0.2,14.8-0.2C215.8,36.2,222.5,35.6,229,37.5z"/>
<path class="st61" d="M116.5,86.1c5.7-6,13.8-7.1,21-8.7c14.6-3.2,29.6-5.1,44.7-3.7c-1,5.7-2,11.3-2.9,17
	c-13.5,1.4-27.1,2-40.6,3.9c-4.2,0.6-8.3,3.3-12.7,0.9c0.3-3.7-0.2-6.7-5.1-6.2C118.5,89.5,116.8,88.7,116.5,86.1z"/>
<path class="st62" d="M126,95.5c17.7-2.2,35.3-5.7,53.3-4.8c7.7,0,15.4,0,23.1,0c0,0.6,0,1.2,0,1.8c-7.7,0-15.4,0-23.1,0
	C164,91.9,149,94.6,134,96.7C131.2,97.1,128.3,98.1,126,95.5z"/>
</svg>
