<svg width="587" height="441" viewBox="0 0 587 441" fill="none" xmlns="http://www.w3.org/2000/svg">
<g id="reading-girl-svg" clip-path="url(#clip0_35_1142)">
<g id="left-flower-pot">
<path id="Vector" d="M68.4736 354.064C68.4736 354.064 -6.36892 319.534 19.914 295.602C46.1969 271.671 68.4736 354.064 68.4736 354.064Z" fill="#E6E6E6"/>
<path id="Vector_2" d="M67.1821 362.12C67.1821 362.12 32.7693 248.856 83.442 254.31C134.115 259.764 67.1821 362.12 67.1821 362.12Z" fill="#E6E6E6"/>
<path id="Vector_3" d="M42.0879 351.889L43.5554 370.837V371.175C43.5539 374.121 43.7057 377.065 44.0103 379.995C45.9621 399.326 54.3855 408.131 64.2325 408.131C74.0794 408.131 82.136 399.311 84.1024 379.995C84.3959 377.055 84.5427 374.115 84.5427 371.175V370.837L86.0102 351.889H42.0879Z" fill="#E6E6E6"/>
<path id="Vector_4" d="M84.9242 371.263V371.587C84.9267 374.601 84.7748 377.614 84.4693 380.612H43.6435C43.35 377.672 43.1885 374.6 43.1885 371.587V371.263H84.9242Z" fill="white"/>
</g>
<g id="right-flower-pot">
<path id="Vector_5" d="M556.755 365.648C556.755 365.648 498.789 338.923 519.157 320.387C539.526 301.85 556.755 365.648 556.755 365.648Z" fill="#E6E6E6"/>
<path id="Vector_6" d="M555.742 371.91C555.742 371.91 529.107 284.225 568.333 288.429C607.56 292.633 555.742 371.91 555.742 371.91Z" fill="#E6E6E6"/>
<path id="Vector_7" d="M536.327 363.913L537.443 378.613V378.863C537.442 381.156 537.56 383.447 537.795 385.728C539.262 400.678 545.837 407.499 553.453 407.499C561.069 407.499 567.321 400.678 568.832 385.728C569.067 383.447 569.185 381.156 569.185 378.863V378.613L570.315 363.913H536.327Z" fill="#E6E6E6"/>
<path id="Vector_8" d="M569.728 378.599V378.863C569.728 381.23 569.61 383.597 569.375 385.949H537.296C537.061 383.597 536.944 381.23 536.944 378.863V378.599H569.728Z" fill="white"/>
</g>
<g id="Lamp">
<path id="Vector_9" d="M195.31 121.922V96.1528H191.318V121.922C190.167 122.386 189.214 123.237 188.621 124.328C188.029 125.42 187.834 126.684 188.07 127.903C188.306 129.123 188.958 130.223 189.915 131.013C190.872 131.804 192.073 132.236 193.314 132.236C194.554 132.236 195.756 131.804 196.713 131.013C197.669 130.223 198.322 129.123 198.558 127.903C198.794 126.684 198.599 125.42 198.006 124.328C197.413 123.237 196.46 122.386 195.31 121.922Z" fill="#E6E6E6"/>
<path id="Vector_10" d="M204.643 381.95H177.318V49.4067H166.649V381.95H139.324C136.086 381.948 132.878 382.586 129.885 383.826C126.892 385.066 124.173 386.885 121.882 389.178C119.591 391.472 117.774 394.195 116.534 397.192C115.294 400.189 114.656 403.402 114.656 406.646H229.312C229.308 400.095 226.707 393.814 222.081 389.183C217.455 384.552 211.183 381.95 204.643 381.95V381.95Z" fill="#E6E6E6"/>
<path id="Vector_11" d="M114.465 98.8281H228.93L221.945 11.1279C221.695 8.10294 220.322 5.28175 218.097 3.2215C215.872 1.16126 212.956 0.0117486 209.926 0L133.44 0C130.41 0.0117486 127.494 1.16126 125.269 3.2215C123.044 5.28175 121.671 8.10294 121.421 11.1279L114.465 98.8281Z" fill="#38BCE0"/>
</g>
<g id="girl">
<path id="Vector_12" d="M273.894 252.693C271.736 252.337 269.525 252.853 267.747 254.13C265.969 255.406 264.77 257.338 264.414 259.499V259.602L261.215 280.77L272.192 283.71L280.219 263.953C280.631 262.949 280.841 261.873 280.837 260.787C280.832 259.701 280.614 258.627 280.194 257.625C279.774 256.624 279.161 255.716 278.389 254.953C277.618 254.19 276.704 253.587 275.699 253.178C275.116 252.954 274.511 252.792 273.894 252.693V252.693Z" fill="#A0616A"/>
<path id="Vector_13" d="M273.689 280.77C279.779 305.011 277.167 327.178 254.494 344.583C227.286 337.071 209.207 318.99 198.112 292.618C197.444 291.028 197.096 289.321 197.087 287.596C197.078 285.87 197.408 284.16 198.06 282.562C198.711 280.965 199.671 279.512 200.884 278.286C202.096 277.06 203.538 276.086 205.127 275.419C205.303 275.331 205.494 275.272 205.67 275.199C208.171 274.279 210.892 274.144 213.471 274.811C216.051 275.478 218.366 276.915 220.11 278.933L246.804 309.803L259.322 278.698L273.689 280.77Z" fill="#38BCE0"/>
<path id="Vector_14" d="M413.043 407.94C388.212 406.617 372.774 398.076 369.018 380.568L373.009 373.218L418.81 394.107C420.357 394.815 421.56 396.109 422.154 397.705C422.749 399.301 422.686 401.069 421.98 402.618C421.629 403.391 421.128 404.085 420.505 404.661C419.883 405.236 419.152 405.681 418.355 405.97L413.043 407.94Z" fill="#E6E6E6"/>
<path id="Vector_15" d="M393.848 408.116C380.948 407.719 368.533 407.852 356.779 408.645C354.715 408.783 352.68 408.102 351.115 406.748C349.549 405.395 348.579 403.478 348.414 401.413L347.709 392.593L337.716 376.57L346.374 367.882C360.946 382.421 376.913 394.622 395.887 401.883C396.497 402.302 396.954 402.908 397.191 403.609C397.428 404.31 397.432 405.069 397.203 405.772C396.973 406.476 396.522 407.086 395.917 407.511C395.312 407.936 394.586 408.154 393.848 408.131V408.116Z" fill="#E6E6E6"/>
<path id="Vector_16" d="M323.716 345.171C307.236 374.703 291.035 394.607 269.727 405.264C243.502 413.937 224.337 402.456 209.398 378.892L252.718 350.183L259.058 356.519L316.452 312.772C317.854 311.456 319.715 310.744 321.636 310.788C323.557 310.832 325.384 311.628 326.724 313.007L375.68 373.277L369.678 383.288L323.716 345.171Z" fill="#2F2E41"/>
<path id="Vector_17" d="M338.376 379.892L315.718 345.171L321.045 335.16L351.041 366.545L338.376 379.892Z" fill="#2F2E41"/>
<path id="Vector_18" d="M207.725 269.04C220.238 269.04 230.383 258.878 230.383 246.343C230.383 233.808 220.238 223.646 207.725 223.646C195.211 223.646 185.066 233.808 185.066 246.343C185.066 258.878 195.211 269.04 207.725 269.04Z" fill="#A0616A"/>
<path id="Vector_19" d="M213.727 288.458L188.398 279.785C192.141 273.815 193.783 266.762 193.064 259.749H213.727C212.463 269.277 212.463 278.93 213.727 288.458V288.458Z" fill="#A0616A"/>
<path id="Vector_20" d="M267.716 349.184C263.93 350.742 263.651 355.799 260.056 357.519C242.695 365.839 224.337 372.601 211.731 384.567C182.264 364.531 154.968 302.247 190.393 275.066C202.486 282.152 213.301 287.223 213.066 275.066L267.716 349.184Z" fill="#38BCE0"/>
<path id="Vector_21" opacity="0.2" d="M252.41 322.474L240.068 318.064L215.737 337.174L204.834 297.837C204.085 295.117 202.853 296.499 201.092 298.395C199.258 296.689 196.974 295.544 194.511 295.096C192.048 294.649 189.509 294.917 187.194 295.869C184.878 296.822 182.883 298.419 181.445 300.471C180.007 302.523 179.186 304.945 179.079 307.45C177.788 335.968 186.417 360.106 207.725 378.569C235.607 372.586 247.523 353.682 252.395 329.162L251.075 328.28C251.559 326.34 251.999 324.444 252.41 322.474Z" fill="black"/>
<path id="Vector_22" d="M210.777 216.487C218.247 218.192 226.758 220.617 227.242 222.867C234.932 224.807 240.729 229.467 241.917 236.552C242.007 237.103 241.988 237.665 241.86 238.208C241.733 238.751 241.499 239.263 241.173 239.715C240.847 240.167 240.435 240.55 239.961 240.843C239.487 241.135 238.96 241.33 238.41 241.418C238.161 241.44 237.911 241.44 237.662 241.418C233.479 241.418 227.213 240.962 223.06 239.228C211.012 247.004 209.001 267.158 214.255 280.976L205.978 280.211L197.423 255.104L195.178 279.3L176.291 276.801L178.712 246.048C179.461 238.795 181.926 231.826 185.903 225.718C186.319 225.11 186.77 224.526 187.253 223.969C190.129 220.703 193.837 218.281 197.98 216.963C202.124 215.645 206.547 215.481 210.777 216.487V216.487Z" fill="#2F2E41"/>
<path id="Vector_23" d="M253.393 292.706L274.129 317.123L305.24 280.344L284.225 254.795L253.393 292.706Z" fill="#3F3D56"/>
<path id="Vector_24" d="M299.913 281.196L275.244 260.969C276.712 257.603 283.374 258.72 283.374 258.72L302.687 278.33C303.357 279.015 303.935 279.786 304.404 280.623V280.623L299.913 281.196Z" fill="#F2F2F2"/>
<path id="Vector_25" d="M301.043 279.785L272.955 257.882L241.829 305.054L271.179 324.855C272.118 325.142 273.109 325.214 274.079 325.067C275.049 324.919 275.974 324.556 276.785 324.002L305.372 280.211L301.043 279.785Z" fill="#3F3D56"/>
<path id="Vector_26" d="M276.51 264.712L276.245 265.082L294.18 277.992L294.446 277.622L276.51 264.712Z" fill="#38BCE0"/>
<path id="Vector_27" d="M294.668 282.463L271.127 318.118L271.506 318.37L295.048 282.715L294.668 282.463Z" fill="#38BCE0"/>
<path id="Vector_28" d="M250.276 303.195L250.008 303.564L269.169 317.545L269.438 317.176L250.276 303.195Z" fill="#38BCE0"/>
<path id="Vector_29" d="M273.098 265.345L248.71 300.442L249.084 300.702L273.472 265.605L273.098 265.345Z" fill="#38BCE0"/>
<path id="Vector_30" d="M282.57 258.461L282.38 258.668L304.664 279.18L304.854 278.973L282.57 258.461Z" fill="#B3B3B3"/>
<path id="Vector_31" d="M277.343 259.016L277.164 259.23L301.232 279.324L301.411 279.11L277.343 259.016Z" fill="#B3B3B3"/>
<path id="Vector_32" d="M264.59 299.88C263.701 299.259 262.698 298.819 261.64 298.586C260.581 298.353 259.486 298.331 258.419 298.523C257.352 298.714 256.333 299.114 255.42 299.7C254.507 300.286 253.719 301.046 253.1 301.938V302.026L241.11 319.799L249.783 327.149L265.5 312.743C266.3 312.012 266.948 311.131 267.407 310.149C267.866 309.167 268.127 308.104 268.175 307.021C268.223 305.938 268.056 304.856 267.685 303.837C267.315 302.819 266.746 301.883 266.014 301.085C265.591 300.626 265.113 300.222 264.59 299.88V299.88Z" fill="#A0616A"/>
<path id="Vector_33" d="M252.41 325.134C247.538 349.654 235.681 368.558 207.739 374.556C186.387 356.093 177.802 331.926 179.094 303.422C179.254 299.941 180.787 296.666 183.358 294.317C185.928 291.968 189.325 290.738 192.8 290.898H193.387C196.039 291.141 198.555 292.187 200.599 293.896C202.644 295.605 204.121 297.897 204.834 300.468L215.723 339.834L240.347 317.093L252.41 325.134Z" fill="#38BCE0"/>
<path id="Vector_34" d="M278.776 258.634L278.592 258.843L301.771 279.342L301.956 279.133L278.776 258.634Z" fill="#B3B3B3"/>
</g>
<g id="base-line">
<path id="Vector_35" d="M588.306 408.66H0V407.322H588.57L588.306 408.66Z" fill="#3F3D56"/>
</g>
<g id="right-painting">
<path id="Vector_36" d="M434.792 95.0388C434.688 95.0388 434.585 95.0593 434.489 95.0992C434.393 95.1391 434.306 95.1976 434.232 95.2713C434.158 95.345 434.1 95.4325 434.06 95.5288C434.021 95.6251 434 95.7283 434 95.8326V147.606C434 147.71 434.021 147.813 434.06 147.91C434.1 148.006 434.158 148.094 434.232 148.167C434.306 148.241 434.393 148.299 434.489 148.339C434.585 148.379 434.688 148.4 434.792 148.4H497.191C497.401 148.4 497.602 148.316 497.751 148.167C497.899 148.018 497.983 147.817 497.983 147.606V95.7738C497.983 95.5633 497.899 95.3613 497.751 95.2125C497.602 95.0636 497.401 94.98 497.191 94.98L434.792 95.0388Z" fill="#E6E6E6"/>
<path id="Vector_37" d="M440.662 101.654V142.388H492.025V101.654H440.662Z" fill="white"/>
<path id="Vector_38" d="M472.654 96.9793H459.446C459.209 96.9812 458.974 96.9364 458.755 96.8473C458.535 96.7582 458.335 96.6267 458.166 96.4601C457.997 96.2936 457.862 96.0954 457.77 95.8767C457.677 95.6581 457.629 95.4234 457.627 95.1859C457.626 94.865 457.712 94.5499 457.876 94.2745L464.451 82.8673C464.591 82.6225 464.788 82.4155 465.026 82.2644C465.264 82.1132 465.535 82.0225 465.815 82H466.006C466.323 81.9991 466.634 82.0831 466.908 82.2433C467.181 82.4036 467.407 82.6343 467.562 82.9114L474.107 94.2451C474.263 94.5069 474.354 94.8026 474.372 95.1072C474.39 95.4117 474.334 95.7161 474.209 95.9944C474.063 96.3025 473.832 96.5626 473.543 96.7447C473.255 96.9268 472.921 97.0234 472.581 97.0234L472.654 96.9793ZM459.138 95.2888C459.125 95.3469 459.125 95.4072 459.138 95.4652C459.172 95.5205 459.219 95.5659 459.276 95.5969C459.333 95.6278 459.397 95.6433 459.461 95.6416H472.669C472.731 95.6422 472.792 95.6261 472.847 95.5951C472.901 95.5641 472.946 95.5193 472.977 95.4652C472.99 95.4072 472.99 95.3469 472.977 95.2888C472.992 95.226 472.992 95.1605 472.977 95.0977L466.402 83.7052C466.353 83.6218 466.273 83.5611 466.18 83.5363C466.087 83.5115 465.987 83.5247 465.903 83.5729C465.849 83.6054 465.804 83.6508 465.771 83.7052L459.182 95.0389C459.167 95.1017 459.167 95.1672 459.182 95.23L459.138 95.2888Z" fill="#E6E6E6"/>
<path id="Vector_39" d="M466.08 85.3514C466.679 85.3514 467.166 84.8644 467.166 84.2636C467.166 83.6628 466.679 83.1758 466.08 83.1758C465.48 83.1758 464.994 83.6628 464.994 84.2636C464.994 84.8644 465.48 85.3514 466.08 85.3514Z" fill="#E6E6E6"/>
<path id="Vector_40" d="M449.35 100.772C453.943 105.49 457.112 111.411 458.493 117.853C459.55 122.98 459.43 128.28 458.141 133.353C456.852 138.426 454.428 143.139 451.052 147.136C450.216 148.12 451.625 149.546 452.52 148.606C457.117 143.183 460.057 136.548 460.987 129.496C461.66 124.041 461.095 118.505 459.334 113.3C457.573 108.095 454.662 103.355 450.818 99.4341C449.922 98.5227 448.499 99.9339 449.35 100.904V100.772Z" fill="#E6E6E6"/>
<path id="Vector_41" d="M479.39 96.5089C476.418 98.7997 473.98 101.712 472.247 105.043C470.513 108.374 469.525 112.043 469.352 115.795C469.057 123.596 471.643 131.232 476.616 137.243C479.416 140.741 482.761 143.764 486.522 146.195C487.593 146.9 488.606 145.166 487.534 144.46C481.257 140.502 476.324 134.731 473.388 127.908C472.032 124.647 471.334 121.15 471.334 117.618C471.334 114.086 472.032 110.589 473.388 107.328C474.88 103.697 477.324 100.538 480.461 98.1847C481.488 97.4203 480.461 95.6857 479.448 96.4501L479.39 96.5089Z" fill="#E6E6E6"/>
</g>
<g id="left-painting">
<path id="Vector_42" d="M307.309 60.7696C307.135 60.7677 306.961 60.8005 306.799 60.8661C306.637 60.9317 306.49 61.0288 306.366 61.1519C306.242 61.2749 306.143 61.4214 306.076 61.5829C306.008 61.7444 305.974 61.9176 305.974 62.0926V166.272C305.974 166.447 306.008 166.62 306.076 166.781C306.143 166.943 306.242 167.089 306.366 167.212C306.49 167.335 306.637 167.432 306.799 167.498C306.961 167.564 307.135 167.596 307.309 167.595H393.892C394.242 167.595 394.578 167.455 394.826 167.207C395.073 166.959 395.212 166.622 395.212 166.272V62.0926C395.212 61.7417 395.073 61.4052 394.826 61.1571C394.578 60.909 394.242 60.7696 393.892 60.7696H307.309Z" fill="#E6E6E6"/>
<path id="Vector_43" d="M316.628 157.584H385.292V71.4419H316.628V157.584Z" fill="white"/>
<path id="Vector_44" d="M362.839 68.105H338.596C338.007 68.1178 337.424 67.9728 336.909 67.6851C336.394 67.3973 335.965 66.9772 335.666 66.468C335.367 65.9588 335.209 65.3789 335.208 64.7881C335.207 64.1973 335.364 63.617 335.661 63.107L347.797 42.0713C347.845 42.0065 347.876 41.9306 347.886 41.8508C347.886 41.1746 345.699 40.8512 346.418 40.7924L350.41 40.4102H350.732C351.327 40.3973 351.914 40.5464 352.431 40.8415C352.948 41.1366 353.375 41.5668 353.667 42.086L365.745 63.0335C366.061 63.5379 366.235 64.1179 366.25 64.7129C366.265 65.308 366.121 65.8961 365.831 66.416C365.542 66.9358 365.118 67.3682 364.605 67.6679C364.091 67.9676 363.507 68.1236 362.913 68.1197L362.839 68.105ZM337.892 64.7681C337.891 64.8866 337.921 65.0032 337.98 65.1062C338.039 65.2093 338.125 65.2949 338.228 65.3543C338.331 65.4137 338.448 65.4447 338.567 65.4443H362.81C362.927 65.4436 363.041 65.412 363.142 65.3526C363.242 65.2932 363.325 65.2082 363.382 65.1062C363.44 65.0029 363.471 64.8865 363.471 64.7681C363.471 64.6497 363.44 64.5333 363.382 64.43L351.261 43.409C351.218 43.3321 351.16 43.2645 351.091 43.2101C351.022 43.1558 350.943 43.1158 350.858 43.0925C350.774 43.0693 350.685 43.0632 350.598 43.0746C350.511 43.086 350.427 43.1148 350.351 43.1591C350.247 43.2188 350.161 43.305 350.101 43.409L337.98 64.43C337.932 64.5358 337.911 64.6522 337.921 64.7681H337.892Z" fill="#E6E6E6"/>
<path id="Vector_45" d="M350.718 47.0253C351.82 47.0253 352.714 46.1302 352.714 45.0261C352.714 43.9219 351.82 43.0269 350.718 43.0269C349.616 43.0269 348.722 43.9219 348.722 45.0261C348.722 46.1302 349.616 47.0253 350.718 47.0253Z" fill="#E6E6E6"/>
<path id="Vector_46" d="M317.171 124.744C318.17 122.496 319.618 120.478 321.427 118.813C323.236 117.148 325.366 115.873 327.686 115.065C330.007 114.258 332.468 113.936 334.917 114.119C337.367 114.302 339.753 114.987 341.927 116.13C347.122 118.894 351.29 123.23 356.602 125.891C361.741 128.437 367.394 129.77 373.127 129.786C379.591 129.813 385.95 128.146 391.573 124.95C391.803 124.816 391.97 124.595 392.037 124.337C392.104 124.08 392.067 123.806 391.933 123.576C391.798 123.346 391.578 123.178 391.321 123.111C391.064 123.043 390.79 123.081 390.56 123.215C385.445 126.09 379.699 127.651 373.835 127.759C367.971 127.866 362.172 126.518 356.955 123.833C351.642 121.055 347.445 116.483 342.045 113.954C339.759 112.837 337.275 112.185 334.735 112.036C332.196 111.887 329.653 112.244 327.252 113.087C324.581 113.985 322.131 115.44 320.062 117.355C317.993 119.271 316.352 121.604 315.248 124.2C314.764 125.406 316.716 125.92 317.185 124.744H317.171Z" fill="#E6E6E6"/>
<path id="Vector_47" d="M315.586 143.472C326.703 140.976 338.237 141.011 349.338 143.575C359.185 145.868 369.34 149.984 379.496 146.912C384.111 145.681 388.062 142.689 390.502 138.577C391.133 137.46 389.401 136.445 388.785 137.577C384.382 145.515 374.11 146.853 366.009 145.559C360.579 144.677 355.355 142.943 350.028 141.679C338.551 138.991 326.616 138.941 315.116 141.532C313.854 141.811 314.397 143.751 315.645 143.472H315.586Z" fill="#E6E6E6"/>
<path id="Vector_48" d="M314.867 98.6809C325.507 96.875 336.403 97.2652 346.888 99.8275C356.691 102.238 366.259 107.721 376.619 106.781C381.477 106.527 386.055 104.423 389.416 100.901C390.267 99.9304 388.858 98.5192 387.948 99.4306C385.064 102.5 381.138 104.377 376.942 104.693C372.202 105.054 367.439 104.444 362.942 102.9C357.909 101.342 353.007 99.3571 347.871 98.0635C336.902 95.3141 325.481 94.8885 314.338 96.814C313.076 97.0345 313.605 98.9602 314.867 98.7397V98.6809Z" fill="#E6E6E6"/>
<path id="Vector_49" d="M355.384 109.794C360.539 109.794 364.718 105.608 364.718 100.445C364.718 95.2815 360.539 91.0957 355.384 91.0957C350.23 91.0957 346.051 95.2815 346.051 100.445C346.051 105.608 350.23 109.794 355.384 109.794Z" fill="#E6E6E6"/>
</g>
</g>
<defs>
<clipPath id="clip0_35_1142">
<rect width="587" height="441" fill="white"/>
</clipPath>
</defs>
</svg>
